<?xml version="1.0" encoding="utf-8"?>
<svg viewBox="133.0328 161.1488 220 48.0436" xmlns="http://www.w3.org/2000/svg">
  <defs>
    <linearGradient data-v-fde0c5aa="" gradientTransform="rotate(25)" id="cd1dbf59-3dc8-4ddc-8833-ad2f78184a02" x1="0%" y1="0%" x2="100%" y2="0%">
      <stop data-v-fde0c5aa="" offset="0" stop-color="#33bbcf" stop-opacity="1"/>
      <stop data-v-fde0c5aa="" offset="1" stop-color="#D7F9FF" stop-opacity="1"/>
    </linearGradient>
  </defs>
  <g data-v-fde0c5aa="" id="d19b552e-17a6-4b7a-8ac0-b5dd96fb676f" fill="#FFFFFF" transform="matrix(3.004606008529663, 0, 0, 3.004606008529663, 194.26939392089844, 157.55833435058594)">
    <path d="M0.97 14.35L3.04 14.35L3.04 12.28L3.96 11.24L5.61 14.35L8.08 14.35L5.35 9.81L7.80 7.00L5.50 7.00L4.03 8.75L3.12 10.11L3.04 10.11L3.04 3.99L0.97 3.99ZM15.62 14.35L15.62 12.74L14.94 12.74L14.94 9.52C14.94 7.78 13.87 6.83 11.80 6.83C10.26 6.83 9.42 7.36 8.83 8.23L10.07 9.32C10.39 8.88 10.82 8.46 11.65 8.46C12.52 8.46 12.87 8.90 12.87 9.62L12.87 10.08L11.70 10.08C9.76 10.08 8.55 10.82 8.55 12.38C8.55 13.65 9.37 14.52 10.84 14.52C11.96 14.52 12.77 14.01 12.99 13.06L13.08 13.06C13.20 13.85 13.73 14.35 14.48 14.35ZM11.61 13.08C10.99 13.08 10.64 12.82 10.64 12.29L10.64 12.08C10.64 11.55 11.06 11.26 11.86 11.26L12.87 11.26L12.87 12.12C12.87 12.80 12.29 13.08 11.61 13.08ZM20.01 14.35L20.01 12.74L19.08 12.74L19.08 3.99L17.01 3.99L17.01 12.33C17.01 13.64 17.65 14.35 19.07 14.35ZM22.29 6.22C23.13 6.22 23.49 5.78 23.49 5.19L23.49 4.89C23.49 4.30 23.13 3.86 22.29 3.86C21.45 3.86 21.08 4.30 21.08 4.89L21.08 5.19C21.08 5.78 21.45 6.22 22.29 6.22ZM21.25 14.35L23.32 14.35L23.32 7.00L21.25 7.00ZM29.06 14.35L29.06 12.74L27.72 12.74L27.72 8.61L29.18 8.61L29.18 7.00L27.72 7.00L27.72 5.01L25.86 5.01L25.86 6.22C25.86 6.72 25.69 7.00 25.13 7.00L24.61 7.00L24.61 8.61L25.65 8.61L25.65 12.21C25.65 13.61 26.40 14.35 27.83 14.35ZM33.63 14.52C34.97 14.52 36.05 14.06 36.71 13.30L35.67 12.01C35.21 12.49 34.73 12.89 33.87 12.89C32.76 12.89 32.24 12.28 32.24 11.31L32.24 11.20L36.96 11.20L36.96 10.58C36.96 8.60 35.98 6.83 33.54 6.83C31.33 6.83 30.10 8.34 30.10 10.67C30.10 13.02 31.37 14.52 33.63 14.52ZM33.59 8.36C34.41 8.36 34.82 8.96 34.82 9.86L34.82 9.98L32.24 9.98L32.24 9.87C32.24 8.96 32.76 8.36 33.59 8.36ZM39.42 14.50C40.26 14.50 40.66 14.03 40.66 13.38L40.66 13.10C40.66 12.46 40.26 11.98 39.42 11.98C38.58 11.98 38.19 12.46 38.19 13.10L38.19 13.38C38.19 14.03 38.58 14.50 39.42 14.50ZM49.21 14.35L49.21 12.74L48.52 12.74L48.52 9.52C48.52 7.78 47.46 6.83 45.39 6.83C43.85 6.83 43.01 7.36 42.42 8.23L43.65 9.32C43.97 8.88 44.41 8.46 45.23 8.46C46.10 8.46 46.45 8.90 46.45 9.62L46.45 10.08L45.29 10.08C43.34 10.08 42.14 10.82 42.14 12.38C42.14 13.65 42.95 14.52 44.42 14.52C45.54 14.52 46.35 14.01 46.58 13.06L46.66 13.06C46.79 13.85 47.32 14.35 48.06 14.35ZM45.19 13.08C44.58 13.08 44.23 12.82 44.23 12.29L44.23 12.08C44.23 11.55 44.65 11.26 45.44 11.26L46.45 11.26L46.45 12.12C46.45 12.80 45.88 13.08 45.19 13.08ZM51.63 6.22C52.47 6.22 52.84 5.78 52.84 5.19L52.84 4.89C52.84 4.30 52.47 3.86 51.63 3.86C50.79 3.86 50.43 4.30 50.43 4.89L50.43 5.19C50.43 5.78 50.79 6.22 51.63 6.22ZM50.60 14.35L52.67 14.35L52.67 7.00L50.60 7.00Z"/>
  </g>
  <g data-v-fde0c5aa="" id="ff507e19-2078-4a4f-8c37-85818a80011d" stroke="none" fill="url(#cd1dbf59-3dc8-4ddc-8833-ad2f78184a02)" transform="matrix(1.5984710454940796, 0, 0, 1.5984710454940796, 133.03277587890625, 159.59512329101562)">
    <path d="M17.572 23.933l4.106 7.095L32 13.189h-8.981V7.582L11.51.972 0 7.582v13.222l11.51 6.611 6.062-3.482zm10.96-8.744l-6.855 11.846-6.855-11.846h13.71z"/>
  </g>
</svg>